<?xml version="1.0" encoding="UTF-8"?>
<svg width="26px" height="28px" viewBox="0 0 26 28" version="1.1" xmlns="http://www.w3.org/2000/svg" xmlns:xlink="http://www.w3.org/1999/xlink">
    <!-- Generator: Sketch 43.1 (39012) - http://www.bohemiancoding.com/sketch -->
    <title>noun_918909_cc</title>
    <desc>Created with Sketch.</desc>
    <defs></defs>
    <g id="Admin-page" stroke="none" stroke-width="1" fill="none" fill-rule="evenodd">
        <g id="Quiz---Results" transform="translate(-329.000000, -1598.000000)" stroke="#4183F3" stroke-width="2" fill="#4183F3" fill-rule="nonzero">
            <g id="Group-5" transform="translate(34.000000, 1595.000000)">
                <g id="noun_918909_cc" transform="translate(296.000000, 4.000000)">
                    <path d="M11.9034286,25.4816957 C6.12457143,25.4816957 1.16342857,21.4098696 0.106857143,15.800087 C0.0485714286,15.4931739 0.253714286,15.1981304 0.564,15.1404783 C0.875428571,15.0867826 1.17257143,15.2863043 1.23028571,15.5926522 C2.18628571,20.6677391 6.67485714,24.3512609 11.9034286,24.3512609 C17.8897143,24.3512609 22.7605714,19.533913 22.7605714,13.6121304 C22.7605714,7.69034783 17.8902857,2.873 11.9034286,2.873 C8.40114286,2.873 5.09428571,4.55904348 3.05828571,7.38286957 C2.87542857,7.63721739 2.51828571,7.69656522 2.26114286,7.51456522 C2.004,7.33369565 1.94457143,6.98043478 2.128,6.72608696 C4.37828571,3.60552174 8.03257143,1.74256522 11.9034286,1.74256522 C18.52,1.74256522 23.9034286,7.06691304 23.9034286,13.6121304 C23.9028571,20.1567826 18.5194286,25.4816957 11.9034286,25.4816957 Z" id="Shape"></path>
                    <path d="M3.15085714,7.11552174 C3.12171429,7.4263913 2.84342857,7.65530435 2.52971429,7.62647826 L2.52971429,7.62647826 C2.21542857,7.59765217 1.984,7.3223913 2.01314286,7.01152174 L2.56971429,1.03152174 C2.59885714,0.720652174 2.87714286,0.49173913 3.19085714,0.520565217 L3.19085714,0.520565217 C3.50514286,0.549391304 3.73657143,0.824652174 3.70742857,1.13552174 L3.15085714,7.11552174 Z" id="Shape"></path>
                    <path d="M2.63485714,7.63947826 C2.32057143,7.66830435 2.04171429,7.43995652 2.01257143,7.12965217 L2.01257143,7.12965217 C1.98342857,6.81878261 2.21428571,6.54295652 2.52857143,6.51413043 L8.57371429,5.954 C8.888,5.92517391 9.16685714,6.15352174 9.19542857,6.46382609 L9.19542857,6.46382609 C9.22514286,6.77469565 8.99371429,7.05052174 8.68,7.07934783 L2.63485714,7.63947826 Z" id="Shape"></path>
                </g>
            </g>
        </g>
    </g>
</svg>