<?xml version="1.0" standalone="no"?>
<!DOCTYPE svg PUBLIC "-//W3C//DTD SVG 20010904//EN"
 "http://www.w3.org/TR/2001/REC-SVG-20010904/DTD/svg10.dtd">
<svg version="1.0" xmlns="http://www.w3.org/2000/svg"
 width="16.000000pt" height="16.000000pt" viewBox="0 0 16.000000 16.000000"
 preserveAspectRatio="xMidYMid meet">
<metadata>
Created by potrace 1.11, written by Peter Selinger 2001-2013
</metadata>
<g transform="translate(0.000000,16.000000) scale(0.006154,-0.006154)"
fill="#000000" stroke="none">
<path d="M0 1300 l0 -1300 1300 0 1300 0 0 1300 0 1300 -1300 0 -1300 0 0
-1300z m1457 1049 c280 -38 475 -195 529 -425 22 -94 15 -247 -15 -326 -47
-122 -98 -180 -323 -365 -94 -76 -118 -121 -125 -233 l-6 -80 -225 0 -225 0 6
113 c9 195 42 253 252 452 168 160 191 194 182 286 -10 109 -69 167 -181 176
-37 3 -78 0 -100 -7 -77 -25 -137 -102 -161 -205 -11 -49 -12 -50 -46 -47 -19
2 -114 12 -213 23 -98 10 -185 19 -192 19 -19 0 -17 33 6 124 71 269 258 438
545 491 88 17 191 18 292 4z m-31 -1594 c103 -50 161 -153 151 -265 -6 -72
-33 -125 -90 -177 -74 -68 -172 -88 -278 -57 -68 20 -158 106 -177 170 -71
239 169 439 394 329z"/>
</g>
</svg>
